inDegrees=no
num_controls=7
num_derivatives=13
num_iterations=75
num_multipliers=7
num_parameters=0
num_slacks=7
num_states=26
objective=0.453919
objective_accelerations=0.047751
objective_balance=0.000998
objective_effort=0.037567
objective_height=0.361642
objective_ligament=0.005961
solver_duration=869.843303
status=Solve_Succeeded
success=true
DataType=double
version=3
OpenSimVersion=4.5
endheader
time	/jointset/ground_pelvis/pelvis_tilt/value	/jointset/ground_pelvis/pelvis_tx/value	/jointset/ground_pelvis/pelvis_ty/value	/jointset/hip_r/hip_flexion_r/value	/jointset/hip_r/hip_adduction_r/value	/jointset/hip_r/hip_rotation_r/value	/jointset/back/lumbar_extension/value	/jointset/patellofemoral_r/patellar_flexion_r/value	/jointset/knee_r/knee_flexion_r/value	/jointset/knee_r/knee_adduction_r/value	/jointset/knee_r/knee_rotation_r/value	/jointset/ankle_r/ankle_angle_r/value	/jointset/subtalar_r/subtalar_angle_r/value	/jointset/ground_pelvis/pelvis_tilt/speed	/jointset/ground_pelvis/pelvis_tx/speed	/jointset/ground_pelvis/pelvis_ty/speed	/jointset/hip_r/hip_flexion_r/speed	/jointset/hip_r/hip_adduction_r/speed	/jointset/hip_r/hip_rotation_r/speed	/jointset/back/lumbar_extension/speed	/jointset/patellofemoral_r/patellar_flexion_r/speed	/jointset/knee_r/knee_flexion_r/speed	/jointset/knee_r/knee_adduction_r/speed	/jointset/knee_r/knee_rotation_r/speed	/jointset/ankle_r/ankle_angle_r/speed	/jointset/subtalar_r/subtalar_angle_r/speed	/forceset/tau_hip_flexion_r	/forceset/tau_hip_adduction_r	/forceset/tau_hip_rotation_r	/forceset/tau_knee_flexion_r	/forceset/tau_ankle_angle_r	/forceset/tau_subtalar_angle_r	/forceset/tau_lumbar_extension	lambda_cid13_p0	lambda_cid14_p0	lambda_cid14_p1	lambda_cid14_p2	lambda_cid14_p3	lambda_cid14_p4	lambda_cid14_p5	/jointset/ground_pelvis/pelvis_tilt/accel	/jointset/ground_pelvis/pelvis_tx/accel	/jointset/ground_pelvis/pelvis_ty/accel	/jointset/hip_r/hip_flexion_r/accel	/jointset/hip_r/hip_adduction_r/accel	/jointset/hip_r/hip_rotation_r/accel	/jointset/back/lumbar_extension/accel	/jointset/patellofemoral_r/patellar_flexion_r/accel	/jointset/knee_r/knee_flexion_r/accel	/jointset/knee_r/knee_adduction_r/accel	/jointset/knee_r/knee_rotation_r/accel	/jointset/ankle_r/ankle_angle_r/accel	/jointset/subtalar_r/subtalar_angle_r/accel	gamma_cid13_p0	gamma_cid14_p0	gamma_cid14_p1	gamma_cid14_p2	gamma_cid14_p3	gamma_cid14_p4	gamma_cid14_p5
1.5	-0.06994854554910876	0.03243578530504218	0.8179018510600102	0.7965971223477218	-0.2357816012237286	-0.09675709131451503	-0.6272934185127734	0.9442679820308488	0.9442679820308552	-0.0006676836277759503	0.1744584988309757	0.3019773853560527	0.1210831446404477	0.4333021877304523	0.2145085158637389	0.5014194208997182	-1.963708245794091	0.04466968320510358	-0.377087898915574	0.7915428526001579	-1.972072188336429	-1.972072188336411	0.2314498122507906	0.0003468377435250978	-0.5251183408648071	-0.123843054515183	-0.151457973604227	0.004095443774113908	0.02593491513552951	-0.3166358662657802	0.02371803325109151	-0.01151971187356558	0.2083922133156192	-8.717573627833982	-35.20448268390628	-10.62852112577956	1.50126870418346	-3.222101389797599	-631.4089613267852	59.10013875853632	0.1265168393399072	0.5531864445738388	-0.4971303609687769	-0.9473543486198241	-0.02073562890843109	-0.03016785472269102	1.758005031955949	-1.310123402064154	-1.310123402064118	0.8041850276799271	-0.04687541124079538	-0.6184896874328571	-0.1682969628915637	8.561926240615856e-08	-7.004993841069357e-08	-2.017750221847752e-06	-1.502862081267924e-07	2.394995783838875e-07	1.728479170742348e-07	-1.331790671273938e-06
1.51	-0.06560955547258528	0.03460828875554108	0.8228901680763399	0.7769148186908348	-0.2353364521548031	-0.1005318941180036	-0.6192915703377716	0.9244841537642771	0.9244841537642932	0.00168570917712243	0.1744618386307962	0.2966959303831652	0.1198358676454147	0.434432277388935	0.2199644507788513	0.4961378797258256	-1.972488544263904	0.04434060480336391	-0.3778647920952209	0.8087081133751149	-1.984413504691963	-1.984413504691956	0.2392182752744005	0.0003258523108442574	-0.5310905492555916	-0.1256051250129919	-0.144483593955504	0.002229311293963245	0.02567378786441876	-0.3125889628096141	0.02537690596499101	-0.01193152973384375	0.2018868353682355	-9.76655460945855	-34.38219857516118	-10.51169015586564	1.309355770106384	-3.340785127235994	-626.635910037998	59.1261750283929	0.09670325909566516	0.537693793014992	-0.5595589509364706	-0.8037979879856701	-0.04215550855976136	-0.1001992435617731	1.67798624654219	-1.154148267643484	-1.154148267645087	0.7613208928924667	0.0208081414557731	-0.5742164704950785	-0.1794807185968003	5.075273730428392e-08	-1.164333565253624e-07	-2.027027013310431e-06	-5.152664413657179e-07	2.63908916244689e-07	1.32822657179605e-07	-1.298498417957561e-06
1.52	-0.06126117485347198	0.03683453091079789	0.8278224910898629	0.7571526259708854	-0.2348952261824299	-0.104314215692099	-0.6111216296257654	0.9045853098310779	0.9045853098311099	0.004116415402884818	0.1744650722264371	0.2913572273152524	0.1185711062203304	0.4351802962471421	0.2252562568153229	0.4902206203384321	-1.979686058406669	0.04388506389149695	-0.3785916530339084	0.8251613600011374	-1.995075321661315	-1.995075321661318	0.2469124964256446	0.0003255969076632183	-0.5365679598701304	-0.1273399405256527	-0.1375092143068196	0.0003631788138010079	0.02541266059338613	-0.3085420593534493	0.02703577867888706	-0.0123433475941516	0.1953814574208206	-10.82386042486133	-33.56112636036431	-10.39382536100761	1.115855674611311	-3.464028044968199	-621.878344197068	59.16627464397745	0.05010267928481513	0.520360668845658	-0.6242740036689735	-0.6307974832101561	-0.04602813093387715	-0.02016140653077503	1.61560220216898	-0.9742235248276812	-0.9742235248276981	0.7893366532067914	-0.04272940534085472	-0.5195301321837557	-0.1628459658619863	3.100336145053188e-08	-1.454937401926468e-07	-2.051238815110616e-06	-7.462448288577172e-07	2.80463522001166e-07	1.082406046023269e-07	-1.272458616347699e-06
1.53	-0.05690730333111969	0.03911281556996843	0.8326925297839395	0.7373264746015314	-0.2344590288602877	-0.1081039267100359	-0.6027907763309919	0.8845882697898557	0.8845882697898921	0.006623186356169944	0.1744684523747067	0.285966303561284	0.1172894142407768	0.4355249543761279	0.2303671902809225	0.4836881195638083	-1.985271539619183	0.04334173389294501	-0.3793537814439428	0.8408807632669183	-2.004047351071073	-2.004047351071069	0.2544093584717089	0.000353910729070645	-0.5415289169052437	-0.1289793913702473	-0.130491407125018	-0.001543270385700194	0.02507508807739672	-0.304732255521423	0.02881566409768922	-0.01279972541051337	0.1888532757573017	-11.88080924371418	-32.72324469442052	-10.29711788449825	0.9311512180979019	-3.580721615635027	-617.3883858856824	59.21208780266847	0.01626753119237687	0.5014955880720661	-0.6825688130874965	-0.4815467653749642	-0.06065882788199715	-0.1046739525278367	1.530829035826102	-0.8158973907201704	-0.815897390719026	0.7247045436459322	0.02591185114014323	-0.4711413970745494	-0.1620704646577141	2.731595667290994e-08	-1.561483997595857e-07	-2.091319065394403e-06	-8.348462552436092e-07	2.886724748967981e-07	1.000669597997348e-07	-1.254124544676009e-06
